solid OpenSCAD_Model
  facet normal -1 0 0
    outer loop
      vertex 0 0 0
      vertex 0 2.5 2.5
      vertex 0 2.5 0
    endloop
  endfacet
  facet normal -1 -0 0
    outer loop
      vertex 0 2.5 2.5
      vertex 0 0 0
      vertex 0 0 2.5
    endloop
  endfacet
  facet normal 0 0 1
    outer loop
      vertex 2.5 2.5 2.5
      vertex 1.25 1.25 2.5
      vertex 2.5 1.25 2.5
    endloop
  endfacet
  facet normal -0 0 1
    outer loop
      vertex 0 2.5 2.5
      vertex 1.25 1.25 2.5
      vertex 2.5 2.5 2.5
    endloop
  endfacet
  facet normal 0 0 1
    outer loop
      vertex 0 0 2.5
      vertex 1.25 1.25 2.5
      vertex 0 2.5 2.5
    endloop
  endfacet
  facet normal 0 0 1
    outer loop
      vertex 1.25 1.25 2.5
      vertex 0 0 2.5
      vertex 1.25 0 2.5
    endloop
  endfacet
  facet normal 1 0 0
    outer loop
      vertex 2.5 1.25 1.25
      vertex 2.5 2.5 2.5
      vertex 2.5 1.25 2.5
    endloop
  endfacet
  facet normal 1 0 0
    outer loop
      vertex 2.5 2.5 2.5
      vertex 2.5 1.25 1.25
      vertex 2.5 2.5 0
    endloop
  endfacet
  facet normal 1 0 0
    outer loop
      vertex 2.5 0 0
      vertex 2.5 1.25 1.25
      vertex 2.5 0 1.25
    endloop
  endfacet
  facet normal 1 0 0
    outer loop
      vertex 2.5 1.25 1.25
      vertex 2.5 0 0
      vertex 2.5 2.5 0
    endloop
  endfacet
  facet normal 0 1 -0
    outer loop
      vertex 2.5 2.5 0
      vertex 0 2.5 2.5
      vertex 2.5 2.5 2.5
    endloop
  endfacet
  facet normal 0 1 0
    outer loop
      vertex 0 2.5 2.5
      vertex 2.5 2.5 0
      vertex 0 2.5 0
    endloop
  endfacet
  facet normal 0 0 -1
    outer loop
      vertex 0 0 0
      vertex 2.5 2.5 0
      vertex 2.5 0 0
    endloop
  endfacet
  facet normal -0 0 -1
    outer loop
      vertex 2.5 2.5 0
      vertex 0 0 0
      vertex 0 2.5 0
    endloop
  endfacet
  facet normal 0 -1 0
    outer loop
      vertex 0 0 2.5
      vertex 1.25 0 1.25
      vertex 1.25 0 2.5
    endloop
  endfacet
  facet normal 0 -1 0
    outer loop
      vertex 0 0 0
      vertex 1.25 0 1.25
      vertex 0 0 2.5
    endloop
  endfacet
  facet normal 0 -1 0
    outer loop
      vertex 2.5 0 0
      vertex 1.25 0 1.25
      vertex 0 0 0
    endloop
  endfacet
  facet normal 0 -1 0
    outer loop
      vertex 1.25 0 1.25
      vertex 2.5 0 0
      vertex 2.5 0 1.25
    endloop
  endfacet
  facet normal 1 -0 0
    outer loop
      vertex 1.25 0 2.5
      vertex 1.25 1.25 1.25
      vertex 1.25 1.25 2.5
    endloop
  endfacet
  facet normal 1 0 0
    outer loop
      vertex 1.25 1.25 1.25
      vertex 1.25 0 2.5
      vertex 1.25 0 1.25
    endloop
  endfacet
  facet normal -0 0 1
    outer loop
      vertex 1.25 1.25 1.25
      vertex 2.5 0 1.25
      vertex 2.5 1.25 1.25
    endloop
  endfacet
  facet normal 0 0 1
    outer loop
      vertex 2.5 0 1.25
      vertex 1.25 1.25 1.25
      vertex 1.25 0 1.25
    endloop
  endfacet
  facet normal 0 -1 0
    outer loop
      vertex 1.25 1.25 1.25
      vertex 2.5 1.25 2.5
      vertex 1.25 1.25 2.5
    endloop
  endfacet
  facet normal 0 -1 -0
    outer loop
      vertex 2.5 1.25 2.5
      vertex 1.25 1.25 1.25
      vertex 2.5 1.25 1.25
    endloop
  endfacet
endsolid OpenSCAD_Model
